<svg xmlns="http://www.w3.org/2000/svg" xmlns:xlink="http://www.w3.org/1999/xlink" viewBox="0 0 4000 4000"><defs><clipPath id="a" transform="translate(0 0)"><path d="M1064.1,1581.15c91.49-143.27,209.29-257.37,342-339.46l-.09,0S1377.73,956.45,1609,844c522.15-254,1076,435.45,1259,857.89l-18.23,39.83-39.06,67.18-35.94,129.69-42.19,134.38-67.19,162.5-89,87.5L2456,2490.11l-156.25,57.81-57.82-37.5,28.13-131.25L2415.37,2187l48.44-78.12-29.69-64.07-148.43,123.44-134.38,120.31-118,115.24-43,14C2188.6,1952.71,2151.79,1382,1064.1,1581.15" style="fill:none;clip-rule:evenodd"/></clipPath><linearGradient id="b" x1="2041.65" y1="4181.28" x2="1939.32" y2="645.77" gradientUnits="userSpaceOnUse"><stop offset="0" stop-color="#027800"/><stop offset="1" stop-color="#d7f241"/></linearGradient><clipPath id="c" transform="translate(0 0)"><path d="M2864.93,1694.53C3222.28,2498.41,2154,3497,1360.42,3134c134.94-63.12,253.74-139.91,337.37-234.14,192.42-216.81,301.14-502.41,301.14-502.41,137.34-251.29,483.6-457.29,483.6-457.29,68.67,154.86,32.14,206-84.74,322.89s-86.2,216.22-86.2,216.22c339-102.27,412-485.06,450-622.4,22.71-82.1,69.43-133.91,103.34-162.31" style="fill:none;clip-rule:evenodd"/></clipPath><linearGradient id="d" x1="2281.49" y1="4437.79" x2="2296.83" y2="1572.29" xlink:href="#b"/></defs><title>bird2</title><rect width="4000" height="4000" style="fill:none"/><g style="clip-path:url(#a)"><rect x="1064.1" y="589.94" width="1803.88" height="1957.98" style="fill:url(#b)"/></g><path d="M2849.13,1661.31q10,20.18,18.85,40.53l-18.23,39.83-39.06,67.18-35.94,129.69-42.19,134.38-67.19,162.5-89,87.5L2456,2490.11l-156.25,57.81-57.82-37.5,28.13-131.25L2415.37,2187l48.44-78.12-29.69-64.07-148.43,123.44-134.38,120.31-118,115.24-43,14c29.15-68.36,53.15-139,69.54-209.16,209.47-199.19,422.65-268.49,422.65-268.49,146.74,148,42.33,258.2-40.49,339.45s-78.12,126.57-78.12,126.57c169.6-104.75,242.66-216.48,289.07-368.51,39.9-130.74,72.55-287.08,196.14-376.33" transform="translate(0 0)" style="fill:#013b01;fill-rule:evenodd;opacity:0.19"/><g style="clip-path:url(#c)"><rect x="1360.42" y="1694.53" width="1861.85" height="1802.5" style="fill:url(#d)"/></g><path d="M2864.93,1694.53c46.7,105.06,68.85,213.44,70.65,321.67-60.8,215.28-236.76,544.9-746,686.37,0,0-66.48-113.32-18.76-293.75-340.44,286.29-255.24,531.76-810.36,725.15,134.94-63.12,253.74-139.91,337.37-234.14,192.42-216.81,301.14-502.41,301.14-502.41,137.34-251.29,483.6-457.29,483.6-457.29,68.67,154.86,32.14,206-84.74,322.89s-86.2,216.22-86.2,216.22c339-102.27,412-485.06,450-622.4,22.71-82.1,69.43-133.91,103.34-162.31" transform="translate(0 0)" style="fill:#fefefe;fill-rule:evenodd;opacity:0.17"/><path d="M2864.93,1694.53c46.7,105.06,68.85,213.44,70.65,321.67-44.13,156.24-149,372.7-397.83,533.76,251.31-171,304.16-360.89,340-484.12,35.94-123.44-64.07-190.62-111.56-100.19s-57.2,220.5-189.91,357.27-275.1,171-275.1,171c-29.87-161.4,92.18-251.56,135.93-320.31s-28.12-139.06-139.06-57.81-238.28,233.6-303.12,339.07c-39.09,63.57-89.87,146.42-124,202.22,83.12-141.8,128-259.71,128-259.71,137.34-251.29,483.6-457.29,483.6-457.29,68.67,154.86,32.14,206-84.74,322.89s-86.2,216.22-86.2,216.22c339-102.27,412-485.06,450-622.4,22.71-82.1,69.43-133.91,103.34-162.31" transform="translate(0 0)" style="fill:#fefefe;fill-rule:evenodd;opacity:0.30000000000000004"/><path d="M1928.62,1393.21c344,51.35,521.44,336.85,561.65,554.94,135.21,144,33.08,251.65-48.23,331.43-82.81,81.25-78.12,126.57-78.12,126.57,169.6-104.75,242.66-216.48,289.07-368.51,39.9-130.74,72.55-287.07,196.14-376.33q8.25,16.61,15.7,33.32C2678.69,1271.61,2128.17,591.38,1609,844c-231.25,112.5-203,397.72-203,397.72l0,0c-132.67,82.08-250.47,196.18-342,339.43,0,0,445.77-250.44,864.52-187.94" transform="translate(0 0)" style="fill:#fefefe;fill-rule:evenodd;opacity:0.13"/><path d="M1928.62,1393.21c293.51,43.81,465.7,258,534.94,455.43-81.57-337.08-255.69-470.6-503.17-528.15-268.74-62.5-406.25-40.62-409.37-184.37S1676,770.49,2088.52,908c408.93,136.31,721.47,675.29,726.84,684.6C2593.85,1172.13,2088.08,610.88,1609,844c-231.25,112.5-203,397.72-203,397.72l0,0c-132.67,82.08-250.47,196.18-342,339.43,0,0,445.77-250.44,864.52-187.94" transform="translate(0 0)" style="fill:#fefefe;fill-rule:evenodd;opacity:0.28"/><path d="M1813.94,914.39a64.85,64.85,0,1,1-64.84,64.85,64.85,64.85,0,0,1,64.84-64.85" transform="translate(0 0)" style="fill:#fefefe;fill-rule:evenodd"/></svg>